<!--NEED THIS Link to external css file -->
<?xml-stylesheet type="text/css" href="../styles.css"?>


<svg id="svgBubbles" xmlns="http://www.w3.org/2000/svg" viewBox="0 0 300 300">

<!--THIS IS THE FIRST BUBBLE'S WHITE-->
<svg width="273" height="200" viewBox="0 0 273 200" fill="none" xmlns="http://www.w3.org/2000/svg">
<circle cx="50" cy="150" r="50" transform="rotate(90 50 150)" fill="url(#paint0_linear_12_16)" fill-opacity="0.71"/>

<path id="bubble1" d="M81.5 119C81.5 124.271 77.4467 128.5 72.5 128.5C67.5533 128.5 63.5 124.271 63.5 119C63.5 113.729 67.5533 109.5 
72.5 109.5C77.4467 109.5 81.5 113.729 81.5 119Z" fill="white" stroke="white"/>
<!--THIS IS THE SECOND BUBBLE'S WHITE-->
<circle cx="123" cy="50" r="50" transform="rotate(90 123 50)" fill="url(#paint1_linear_12_16)" fill-opacity="0.71"/>

<path id="bubble2" d="M154.5 19C154.5 24.2712 150.447 28.5 145.5 28.5C140.553 28.5 136.5 24.2712 136.5 19C136.5 13.7288 140.553 9.5 
145.5 9.5C150.447 9.5 154.5 13.7288 154.5 19Z" fill="white" stroke="white"/>
<!--THIS IS THE THIRD BUBBLE'S WHITE-->
<circle cx="223" cy="100" r="50" transform="rotate(90 223 100)" fill="url(#paint2_linear_12_16)" fill-opacity="0.71"/>

<path id="bubble3" d="M254.5 69C254.5 74.2712 250.447 78.5 245.5 78.5C240.553 78.5 236.5 74.2712 236.5 69C236.5 63.7288 240.553 59.5 
245.5 59.5C250.447 59.5 254.5 63.7288 254.5 69Z" fill="white" stroke="white"/>
<defs>

<!--THIS IS THE FIRST BUBBLE WITHOUT THE WHITE-->
<linearGradient id="paint0_linear_12_16" x1="50" y1="100" x2="140" y2="108.5" gradientUnits="userSpaceOnUse">
<stop stop-color="#A56786"/>
<stop offset="0.684852" stop-color="#D9438E" stop-opacity="0.46"/>
</linearGradient>

<!--THIS IS THE SECOND BUBBLE WITHOUT THE WHITE-->
<linearGradient id="paint1_linear_12_16" x1="123" y1="-2.68221e-06" x2="213" y2="8.5" gradientUnits="userSpaceOnUse">
<stop stop-color="#A56786"/>
<stop offset="0.684852" stop-color="#D9438E" stop-opacity="0.46"/>
</linearGradient>

<!--THIS IS THE THIRD BUBBLE WITHOUT THE WHITE-->
<linearGradient id="paint2_linear_12_16" x1="223" y1="50" x2="313" y2="58.5" gradientUnits="userSpaceOnUse">
<stop stop-color="#A56786"/>
<stop offset="0.684852" stop-color="#D9438E" stop-opacity="0.46"/>
</linearGradient>
</defs>
</svg>
</svg>