<svg width="300" height="300" viewBox="0 0 300 300" fill="none" xmlns="http://www.w3.org/2000/svg">
<path d="M42.9478 186.748C42.7845 182.606 42.5237 178.48 42.1624 174.369C41.8545 170.861 41.4712 167.368 41.0879 163.879C40.7486 160.766 40.4062 157.657 40.0668 154.544C38.9955 144.742 37.7419 134.333 33.4974 127.104C32.4984 125.403 31.3548 123.92 30.4374 122.102C28.5837 118.432 27.4935 113.222 24.7319 111.612C23.3621 110.812 21.8321 111.111 20.434 110.458C20.1952 110.346 19.9627 110.184 19.7365 109.982C19.6737 110.458 19.6486 110.949 19.6643 111.45C19.7962 115.713 22.4447 118.432 24.7539 120.512C28.7597 124.117 32.8942 128.425 34.7164 135.209C35.9103 139.659 35.9543 144.651 36.2308 149.476C36.9754 162.477 39.5108 174.967 42.3729 187.229C42.5928 187.689 42.8096 188.165 43.0201 188.651C42.995 188.018 42.9698 187.38 42.9478 186.748Z" fill="#E6E6E4"/>
<path d="M47.2677 138.819C44.6412 131.417 39.649 127.079 36.2747 120.507C34.5907 117.227 33.3277 113.425 31.6281 110.169C29.9284 106.914 27.6035 104.129 24.9644 103.967C22.6364 103.826 20.1952 106.443 19.7365 109.977C19.9596 110.179 20.1952 110.341 20.434 110.453C21.8321 111.106 23.3621 110.807 24.7319 111.607C27.4935 113.217 28.5837 118.427 30.4373 122.097C31.3547 123.914 32.4983 125.393 33.4974 127.099C37.7419 134.328 38.9955 144.737 40.0668 154.539C40.4061 157.652 40.7486 160.761 41.0879 163.874C41.4712 167.363 41.8513 170.856 42.1624 174.364C42.5237 178.47 42.7876 182.601 42.9478 186.742C42.9729 187.375 42.9949 188.013 43.0201 188.656C45.2256 193.663 46.9598 199.602 48.7349 204.71C49.1056 205.783 49.4795 206.852 49.8722 207.905C49.4481 204.502 49.4261 200.999 49.4921 197.526C49.646 189.264 50.4974 181.356 51.3112 173.281C51.4148 172.263 51.5154 171.241 51.6159 170.213C52.637 159.753 50.4723 147.841 47.2677 138.819Z" fill="#F7F7F9"/>
<path d="M43.5982 153.207C43.9658 155.637 43.8369 158.184 43.7961 160.685C43.6799 167.676 44.2548 174.698 45.4926 181.401C45.5995 176.88 46.1807 172.39 47.2018 168.172C48.1097 164.421 49.3884 160.7 49.2753 156.675C49.1591 152.524 47.5725 148.894 45.9702 145.633C43.705 141.026 41.2796 136.627 38.7096 132.455C39.495 137.675 40.6355 142.758 42.1153 147.567C42.6808 149.405 43.2997 151.223 43.5982 153.207Z" fill="#E6E6E4"/>
<path d="M254.193 10.1102C253.467 8.35851 252.057 7.74086 250.756 7.54848C247.256 7.02702 243.653 8.67746 240.847 12.0897C238.041 15.4969 236.065 20.6305 235.412 26.1944C234.868 30.8419 235.217 35.6971 234.498 40.2839C233.696 45.3719 231.582 49.2094 230.218 53.7861C229.766 55.3099 229.725 57.0566 229.518 58.7121C229.003 62.8685 227.438 66.4428 225.465 69.3133C225.38 69.6728 225.289 70.0322 225.188 70.3816C222.923 78.1325 217.24 81.16 212.499 85.0381C207.359 89.2452 202.857 95.1888 198.402 101.082C194.208 106.63 189.831 112.827 185.053 117.024C180.243 121.246 174.832 123.413 169.476 124.973C165.055 126.259 160.553 127.2 156.076 126.608C151.599 126.015 147.113 123.793 143.591 119.297C142.805 118.295 142.051 117.136 141.677 115.637C140.892 112.483 142.004 108.812 141.451 105.532C141.212 104.114 140.672 102.894 139.971 101.942C137.546 101.75 135.067 103.456 133.537 106.509C133.041 107.496 132.635 108.61 132.067 109.486C130.128 112.468 126.836 111.739 124.665 109.207C123.826 108.23 123.091 107.035 122.205 106.175C121.379 105.37 120.442 104.874 119.666 103.952C118.416 102.469 117.744 100.059 117.414 97.5834C116.788 96.3481 116.28 94.9508 115.943 93.4826C114.665 87.9339 115.18 81.7676 115.89 75.9606C116.286 72.7256 116.735 69.4652 116.669 66.1694C116.572 61.3345 115.375 56.5047 115.186 51.7711C114.809 51.7357 114.442 51.5028 114.093 51.2648C113.232 50.6725 112.393 50.0042 111.579 49.26C111.114 48.8347 110.649 48.3639 110.326 47.6804C110.012 49.1284 109.98 50.794 110.276 52.4647C112.632 65.7998 115.874 78.6439 113.361 92.5713C113.21 93.4016 113.04 94.2066 112.855 94.9862C112.959 96.0798 113.062 97.1733 113.166 98.2669C113.339 100.079 113.508 101.953 113.223 103.73C112.651 107.273 110.458 109.476 109.374 112.696C108.526 115.212 108.4 118.234 107.533 120.73C106.279 124.34 103.766 126.178 101.589 128.375C101.579 128.41 101.567 128.446 101.557 128.481C99.6596 134.885 97.5986 141.598 93.9322 145.527C90.4354 149.279 86.1124 149.805 82.0281 149.638C80.4164 149.572 78.6161 149.43 76.9227 148.813C69.0181 149.142 61.016 142.879 56.5233 132.334C55.8447 130.739 55.2415 129.058 54.5503 127.474C53.8528 125.874 53.0642 124.36 52.505 122.618C51.4934 119.469 51.3143 115.814 50.6577 112.432C49.8062 108.058 48.1223 104.114 45.8916 101.264C44.8423 99.9224 43.6327 98.7478 42.9886 96.8544C42.2566 94.6977 42.4074 92.0398 41.9016 89.716C41.3518 87.1948 40.0731 85.2557 39.4133 82.8054C38.763 80.4006 38.7661 77.5605 39.4133 75.1607C40.5789 70.8676 43.7144 67.6376 43.3594 62.985C43.2557 61.6079 42.8284 60.3777 42.2315 59.3753C42.1592 59.3348 42.0901 59.2993 42.021 59.2639C40.9088 58.7576 39.6489 59.112 38.7347 60.2511C35.4673 64.3114 35.5772 75.91 36.9596 81.3524C38.6342 87.944 40.4501 94.4901 42.9446 100.398C47.6164 111.455 49.712 124.284 53.614 135.943C56.9349 145.871 59.3886 156.483 55.3232 166.998C54.8927 168.112 54.3806 169.109 53.8183 170.025C53.8371 171.605 53.7743 173.185 53.6266 174.749C53.2905 178.257 52.5427 181.66 52.3982 185.203C52.2537 188.747 52.86 192.671 54.6634 194.711C54.7577 194.817 54.855 194.919 54.965 194.964C55.3075 195.106 55.6562 194.655 55.7756 194.119C55.8981 193.587 55.8573 192.995 55.829 192.428C55.4206 184.044 58.1068 178.166 61.9334 174.491C64.783 171.757 68.2672 170.243 71.588 169.838C75.5655 169.352 79.5712 170.076 83.5487 169.636C91.3811 168.765 98.9842 163.216 104.551 154.296C107.599 149.415 110.049 143.593 113.329 139.123C119.095 131.271 126.911 128.349 134.458 128.137C142.004 127.924 149.488 130.142 156.997 131.357C166.076 132.82 174.044 131.098 182.781 127.246C184.817 126.35 186.853 125.448 188.82 124.213C199.338 117.591 206.929 101.882 217.529 95.6039C219.687 94.323 221.956 93.4522 223.982 91.6955C227.469 88.6781 230.033 83.0332 230.765 76.7656C231.18 73.2116 231.038 69.4855 231.748 66.058C232.656 61.6788 234.881 58.4893 236.009 54.3429C237.379 49.3106 238.004 43.3113 238.959 38.0259C239.625 34.3402 240.3 30.6141 241.463 27.2626C242.302 24.8426 243.401 22.6151 244.815 21.0304C247.595 17.9169 251.281 17.5321 254.58 16.1753C254.652 15.507 254.702 14.8337 254.718 14.1553C254.765 12.7529 254.674 11.2746 254.19 10.1102H254.193Z" fill="#EDEDED"/>
<path d="M39.4196 75.1607C38.7661 77.5655 38.7661 80.4006 39.4196 82.8054C40.0794 85.2507 41.3612 87.1947 41.9079 89.716C42.4137 92.0397 42.2598 94.6977 42.9949 96.8544C43.639 98.7478 44.8454 99.9224 45.8979 101.264C48.1286 104.109 49.8125 108.058 50.664 112.432C51.3237 115.814 51.5028 119.469 52.5113 122.618C53.0674 124.355 53.8591 125.869 54.5566 127.474C55.2478 129.058 55.851 130.734 56.5296 132.334C61.0223 142.884 69.0244 149.142 76.929 148.813C74.8869 148.063 72.9987 146.61 71.786 143.73C71.233 142.419 70.9126 140.89 70.4445 139.492C68.8704 134.769 65.625 131.352 65.1883 126.036C65.0249 124.056 65.292 122.062 65.3862 120.072C65.4805 118.082 65.3768 115.92 64.6008 114.366C63.8248 112.812 62.1911 112.27 61.3491 113.733C59.8599 116.325 62.2665 121.11 60.9092 123.884C60.3626 125.003 59.3383 125.302 58.4932 124.892C57.6481 124.481 56.9538 123.494 56.3788 122.416C54.8425 119.525 53.9848 115.885 52.7752 112.615C50.1016 105.395 45.59 99.6034 44.6255 91.3411C43.7929 84.2128 45.8539 78.0667 46.3189 71.1713C46.4949 68.559 46.3409 65.7796 45.4612 63.5722C44.8109 61.937 43.4411 60.0638 42.2409 59.3803C42.8378 60.3827 43.262 61.618 43.3688 62.99C43.7238 67.6325 40.5884 70.8676 39.4228 75.1607H39.4196Z" fill="#F7F7F9"/>
<path d="M171.823 148.352C167.547 148.97 163.264 147.75 159.017 146.727C146.5 143.715 132.943 142.733 121.982 152.929C115.309 159.141 110.106 169.084 103.138 174.379C95.3303 180.318 86.0967 179.807 78.2894 185.74C74.0637 188.95 70.1522 194.686 69.5113 202.143C69.0432 207.586 70.413 213.109 72.4991 217.458C73.2029 218.921 73.9852 220.268 74.8146 221.543C74.7235 220.602 74.6638 219.625 74.6481 218.587C74.2711 196.27 89.4018 187.416 100.602 184.201C106.166 182.601 111.821 181.386 117.1 178.136C124.951 173.301 131.677 164.143 139.796 160.619C154.188 154.372 170.032 166.983 184.154 159.303C188.194 157.105 191.886 153.324 195.964 151.395C195.983 151.238 195.998 151.081 196.017 150.929C196.727 144.798 196.916 138.46 197.626 132.222C197.833 130.405 198.063 128.522 198.452 126.775C194.142 128.896 190.576 134.384 186.828 138.708C182.395 143.811 177.252 147.567 171.823 148.352Z" fill="#EDEDED"/>
<path d="M49.8691 207.91C50.0733 208.461 50.2838 209.013 50.5006 209.555C53.3502 216.617 56.1809 225.133 61.3334 228.292C62.1848 228.813 63.121 229.198 63.9944 228.803C64.1075 228.753 64.2206 228.682 64.3275 228.596C62.5932 226.591 61.0192 224.232 59.6588 221.584C58.6817 219.68 57.8052 217.61 57.2522 215.301C55.8887 209.616 56.6113 203.252 57.3528 197.278C58.3204 189.476 59.4703 181.199 61.9366 174.491C58.1099 178.161 55.4269 184.044 55.8322 192.428C55.8604 192.995 55.9013 193.582 55.7787 194.119C55.6562 194.65 55.3075 195.106 54.9682 194.964C54.8582 194.919 54.7577 194.817 54.6666 194.711C52.8663 192.666 52.2568 188.742 52.4014 185.203C52.5459 181.66 53.2968 178.257 53.6298 174.749C53.7774 173.19 53.8403 171.605 53.8214 170.025C53.0674 171.251 52.216 172.324 51.3049 173.291C50.488 181.366 49.6366 189.274 49.4858 197.536C49.4261 200.999 49.4481 204.507 49.8691 207.91Z" fill="#D3D3D3"/>
<path d="M107.53 120.725C108.397 118.229 108.526 115.207 109.371 112.69C110.455 109.471 112.651 107.273 113.219 103.724C113.505 101.947 113.336 100.074 113.163 98.2618C113.059 97.1683 112.956 96.0747 112.852 94.9812C111.451 100.894 109.123 105.461 106.961 110.807C106.33 112.372 105.827 114.062 105.327 115.748C104.08 119.955 102.836 124.158 101.589 128.365C103.763 126.172 106.276 124.335 107.53 120.725Z" fill="#E6E6E4"/>
<path d="M234.548 153.47C231.896 149.972 229.314 147.031 229.534 140.778C229.662 137.057 230.454 132.835 231.334 128.871C230.319 129.21 229.288 129.407 228.249 129.423C225.506 129.468 222.694 128.162 220.63 125.251C218.839 122.725 217.67 119.12 215.675 117.029C213.463 114.71 210.56 114.685 208.041 115.951C206.385 116.781 204.858 118.118 203.385 119.606C203.74 119.449 204.101 119.318 204.459 119.196C205.571 118.826 206.762 118.573 207.833 119.09C208.006 119.176 208.179 119.277 208.346 119.404C209.128 120.001 209.744 121.064 210.227 122.218C212.147 126.815 212.065 133.351 210.033 137.822C207.378 143.659 202.163 145.476 199.731 151.567C199.005 153.384 198.597 155.415 198.317 157.531C197.645 162.664 197.745 168.314 196.005 172.739C194.94 175.448 193.262 177.457 192.332 180.288C191.267 183.538 191.327 187.441 191.653 191.081C191.785 192.549 191.971 194.068 192.521 195.258C193.297 196.929 194.638 197.622 195.92 197.926C196.514 198.068 197.155 198.123 197.824 198.103C203.256 197.941 210.611 192.534 210.658 183.133C210.664 181.832 210.538 180.52 210.677 179.24C210.963 176.587 212.505 174.435 214.174 174.359C214.529 174.344 214.902 174.42 215.188 174.759C215.462 175.088 215.6 175.574 215.663 176.116C215.729 176.683 215.713 177.311 215.682 177.883C215.565 179.989 215.449 182.095 215.333 184.201C215.292 184.92 215.333 185.502 215.43 185.968C216.043 188.864 219.012 187.213 220.344 185.446C220.683 184.996 220.994 184.5 221.29 183.978C222.044 182.632 222.675 181.092 223.316 179.584C223.341 179.528 223.363 179.472 223.388 179.417C226.58 171.924 230.504 165.084 234.491 158.71C234.991 157.91 235.556 157.156 236.05 156.341C235.676 155.237 235.138 154.245 234.548 153.47Z" fill="#EDEDED"/>
<path d="M115.353 51.766C115.296 51.7711 115.24 51.7711 115.183 51.766C115.372 56.4996 116.569 61.3295 116.666 66.1643C116.732 69.4601 116.28 72.7205 115.887 75.9556C115.177 81.7625 114.662 87.9288 115.94 93.4776C116.28 94.9457 116.785 96.343 117.411 97.5783C117.363 97.2189 117.319 96.8594 117.285 96.5C116.075 83.9496 120.442 71.7181 120.499 59.1424C120.515 55.7706 120.282 52.3128 119.362 49.2802C119.289 49.0372 119.208 48.7993 119.126 48.5613C118.369 49.2195 117.624 49.9232 116.902 50.6826C116.424 51.1838 115.921 51.7255 115.353 51.766Z" fill="#D3D3D3"/>
<path d="M113.307 43.4531C111.787 44.0201 110.766 45.63 110.32 47.6753C110.643 48.3588 111.108 48.8296 111.573 49.2549C112.387 49.9941 113.229 50.6674 114.087 51.2597C114.438 51.5027 114.803 51.7356 115.18 51.766C115.236 51.7711 115.293 51.7711 115.35 51.766C115.921 51.7204 116.421 51.1787 116.902 50.6775C117.624 49.9181 118.366 49.2144 119.126 48.5563C117.945 45.2098 115.786 42.5266 113.307 43.4531Z" fill="#F7F7F9"/>
<path d="M141.451 105.527C142.004 108.807 140.895 112.473 141.678 115.632C142.051 117.13 142.805 118.29 143.591 119.292C147.113 123.788 151.599 126.01 156.076 126.603C160.553 127.195 165.055 126.253 169.476 124.967C174.832 123.408 180.243 121.241 185.053 117.019C189.831 112.822 194.208 106.625 198.402 101.077C202.857 95.1837 207.359 89.2401 212.499 85.033C217.24 81.1549 222.923 78.1274 225.189 70.3765C225.289 70.0271 225.38 69.6727 225.465 69.3082C224.786 70.2955 224.061 71.1966 223.313 72.0117C220.385 75.1911 217.061 77.282 213.938 79.945C206.335 86.4303 200.026 96.2114 192.825 103.79C185.825 111.156 177.971 116.386 169.799 119.206C166.199 120.446 161.741 122.183 158.059 121.763C154.543 121.363 150.943 116.32 148.555 112.554C146.23 108.888 144.505 103.345 141.15 102.175C140.76 102.039 140.367 101.963 139.972 101.932C140.672 102.889 141.213 104.109 141.451 105.527Z" fill="#E6E6E4"/>
<path d="M252.214 83.5142C247.552 84.4406 241.356 90.4349 239.622 97.8821C239.323 99.168 239.216 100.535 239.132 101.912C240.464 98.7073 242.245 95.9684 244.438 94.48C246.314 93.2092 248.375 92.9105 250.36 92.1967C252.041 91.5942 253.681 90.6829 255.236 89.4932C257.087 88.0757 258.893 86.1316 259.848 83.2104C260.188 82.1675 260.382 80.9727 260.42 79.783C259.817 80.7196 259.11 81.484 258.337 82.0055C256.424 83.2863 254.272 83.1092 252.214 83.5142Z" fill="#D3D3D3"/>
<path d="M108.906 262.658C106.207 259.888 103.04 258.607 99.999 257.013C94.504 254.127 89.2856 250.107 84.1865 245.692C82.1506 243.931 80.1336 242.108 78.1261 240.265C74.0481 236.524 69.6622 232.038 68.3426 224.784C67.7268 221.402 66.9288 217.367 64.4688 216.445C63.9285 216.243 63.3127 216.268 62.876 216.825C61.9397 218.02 63.2216 221.478 63.8248 222.5C64.406 223.477 65.2417 224.227 65.4239 225.548C65.5936 226.793 65.0501 228.034 64.3275 228.596C64.2206 228.682 64.1075 228.748 63.9944 228.803C63.1179 229.198 62.1816 228.813 61.3334 228.292C56.1809 225.133 53.3502 216.617 50.5006 209.555C50.2838 209.013 50.0733 208.467 49.8691 207.91C49.4795 206.857 49.1057 205.788 48.7318 204.715C46.9567 199.602 45.2224 193.668 43.0169 188.661C42.8064 188.18 42.5896 187.704 42.3697 187.239C39.4542 181.138 35.7061 176.809 30.0886 177.842C28.235 178.181 26.3593 179.71 25.5268 182.399C25.5111 182.454 25.4985 182.505 25.4828 182.561C26.1583 183.715 26.906 184.753 27.7229 185.639C30.2111 188.352 33.1895 189.669 35.7846 192.109C41.688 197.658 44.9208 208.193 48.0971 217.944C51.2766 227.695 55.2132 237.921 61.6255 241.733C63.3818 242.776 65.2606 243.288 66.9571 244.569C68.5531 245.773 69.9292 247.621 71.4812 248.963C74.3622 251.454 77.727 252.102 80.6991 254.294C83.1309 256.086 85.2264 258.856 87.5011 261.124C87.5953 261.113 87.6927 261.098 87.787 261.093C92.5624 260.749 96.7629 266.434 101.498 265.579C104.479 265.037 107.464 264.48 110.445 264.384C109.936 263.781 109.427 263.189 108.906 262.658Z" fill="#F7F7F9"/>
<path d="M80.7023 254.289C77.7302 252.097 74.3654 251.449 71.4844 248.958C69.9324 247.616 68.5563 245.768 66.9603 244.564C65.2637 243.283 63.3881 242.776 61.6287 241.728C55.2164 237.916 51.2766 227.69 48.1003 217.939C44.9209 208.188 41.6911 197.653 35.7878 192.104C33.1927 189.664 30.2143 188.352 27.726 185.634C26.9123 184.743 26.1614 183.705 25.486 182.556C24.6251 185.543 25.2378 189.254 26.5636 191.775C28.5932 195.633 31.405 196.063 34.0064 198.265C38.4583 202.037 42.4703 209.034 44.0003 216.815C46.432 229.193 51.1038 240.149 57.5319 248.016C60.1741 251.246 63.0959 253.97 65.3329 257.914C66.1246 259.306 66.8692 260.891 67.6452 262.389C67.8117 262.323 67.9782 262.258 68.1447 262.202C72.5557 260.739 77.1239 263.959 81.5914 263.017C82.6314 262.799 83.6493 262.354 84.6704 261.949C85.6066 261.574 86.546 261.23 87.5042 261.113C85.2296 258.85 83.134 256.081 80.7023 254.289Z" fill="#D3D3D3"/>
<path d="M220.344 185.441C219.012 187.208 216.043 188.859 215.43 185.963C215.333 185.497 215.292 184.92 215.33 184.196C215.446 182.09 215.562 179.984 215.678 177.878C215.71 177.306 215.726 176.678 215.66 176.111C215.543 176.541 215.418 176.966 215.283 177.387C214.579 179.564 213.639 181.548 213.093 183.842C212.546 186.135 212.461 188.93 213.401 190.864C214.331 192.777 216.059 193.324 217.516 192.706C217.966 192.514 218.39 192.225 218.795 191.876C219.838 189.476 220.608 186.778 221.286 183.968C220.997 184.495 220.686 184.991 220.344 185.441Z" fill="#E2E2E0"/>
<path d="M223.388 179.407C223.363 179.462 223.341 179.518 223.316 179.574C225.892 177.22 227.84 174.071 229.879 170.547C232.047 166.801 234.711 163.814 236.678 159.718C238.167 156.609 239.593 154.022 241.585 151.704C246.443 146.054 251.878 141.7 257.602 138.86C259.481 137.928 261.416 137.143 263.097 135.503C264.611 134.025 265.846 131.853 266.679 129.337C266.512 128.673 266.283 128.066 265.962 127.575C265.284 126.542 264.316 126.198 263.389 126.026C259.716 125.332 255.909 126.684 252.757 129.807C250.838 131.711 249.179 134.222 247.539 136.708C244.548 141.244 241.557 145.78 238.566 150.316C237.602 151.78 237.426 153.207 236.794 154.837C236.587 155.369 236.329 155.855 236.05 156.326C235.559 157.141 234.994 157.895 234.491 158.695C230.501 165.074 226.577 171.914 223.388 179.407Z" fill="#F7F7F9"/>
<path d="M95.0569 269.918C89.9202 267.999 84.5352 266.682 79.3733 268.049C78.4936 268.282 77.6202 268.586 76.7562 268.986C75.6535 269.497 74.5664 270.15 73.4794 270.768C76.7248 270.93 80.0017 271.922 83.1591 273.178C84.8965 273.866 86.6339 274.636 88.4121 274.965C92.4556 275.714 96.5084 274.18 100.561 273.578C101.576 273.426 102.588 273.34 103.603 273.299C100.747 272.231 97.9097 270.986 95.0569 269.918Z" fill="#D3D3D3"/>
<path d="M200.221 230.914C200.265 230.859 200.312 230.808 200.359 230.752C201.701 229.077 202.866 227.062 204.173 225.32C206.658 221.999 209.599 219.711 212.508 217.458C210.026 217.716 207.563 218.42 205.179 219.554C200.529 221.766 196.247 225.578 192.002 229.355C190.544 230.656 189.083 231.957 187.626 233.253C189.454 232.443 191.308 231.831 193.183 231.456C195.521 230.99 197.874 230.823 200.221 230.914Z" fill="#D3D3D3"/>
<path d="M199.888 203.692C199.492 203.596 199.093 203.515 198.694 203.439C190.78 201.895 182.589 204.219 175.489 210.061C170.824 213.904 166.422 219.68 164.76 227.69C164.154 230.601 163.937 233.689 163.356 236.615C162.944 238.691 162.35 240.665 161.734 242.604C159.752 248.857 157.477 254.942 154.493 260.06C150.135 267.543 144.584 271.092 138.583 273.765C134.291 275.674 129.946 277.248 125.535 277.922C131.366 279.339 137.684 278.868 143.412 277.223C144.427 276.929 145.438 276.57 146.44 276.15C151.367 270.652 155.812 263.64 160.066 256.795C162.253 253.276 164.48 249.677 165.853 245.217C167.61 239.511 167.795 232.894 169.554 227.209C170.971 222.622 174.166 218.875 176.853 216.217C185.461 207.692 197.362 213.347 206.096 205.237C204.032 204.938 201.933 204.194 199.888 203.692Z" fill="#D3D3D3"/>
<path d="M278.02 197.081C278.309 194.772 277.615 192.337 276.519 190.772C273.352 186.246 267.329 186.834 263.427 187.38C258.89 188.013 254.423 190.018 250.357 193.324C248.745 194.635 247.187 196.149 245.506 197.202C243.606 198.397 241.563 198.989 239.524 198.939C237.036 198.878 234.322 197.587 233.005 194.18C231.727 190.869 232.126 186.606 232.678 182.809C232.71 182.591 232.744 182.368 232.776 182.151C231.045 186.019 229.125 189.664 227.036 193.035C225.748 195.111 224.274 197.698 224.714 200.548C225.119 203.186 226.97 204.462 228.626 204.983C237.008 207.611 245.563 198.898 253.072 194.013C256.641 191.689 260.624 189.345 264.237 191.496C266.204 192.666 267.784 195.04 269.55 196.863C271.586 198.969 273.839 200.311 276.192 201.115C277.1 200.174 277.81 198.771 278.02 197.081Z" fill="#F7F7F9"/>
<path d="M269.547 196.858C267.781 195.035 266.201 192.661 264.234 191.491C260.621 189.34 256.641 191.684 253.068 194.007C245.563 198.893 237.008 207.611 228.622 204.978C226.967 204.457 225.116 203.181 224.711 200.543C224.271 197.693 225.745 195.106 227.033 193.03C229.122 189.659 231.042 186.013 232.773 182.146C234.388 171.377 237.338 160.209 243.335 154.863C246.326 152.195 249.776 151.273 253.134 150.251C256.493 149.228 259.936 148.003 262.748 144.864C265.557 141.725 267.605 136.197 266.942 130.79C266.883 130.293 266.795 129.802 266.675 129.332C265.843 131.848 264.608 134.02 263.094 135.498C261.413 137.133 259.478 137.923 257.599 138.854C251.875 141.69 246.439 146.049 241.582 151.699C239.59 154.017 238.164 156.599 236.675 159.713C234.711 163.814 232.047 166.795 229.876 170.542C227.837 174.065 225.889 177.214 223.313 179.569C222.672 181.077 222.044 182.616 221.286 183.963C220.608 186.768 219.838 189.471 218.795 191.871C218.308 192.995 217.758 194.048 217.133 195.02C214.01 199.865 209.511 201.571 205.207 202.366C203.045 202.766 200.852 202.994 198.694 203.434C199.093 203.51 199.492 203.591 199.888 203.687C201.93 204.189 204.032 204.933 206.099 205.226C197.365 213.337 185.464 207.682 176.856 216.207C174.17 218.87 170.978 222.617 169.557 227.198C167.798 232.884 167.613 239.501 165.856 245.206C164.484 249.667 162.256 253.271 160.069 256.785C155.815 263.63 151.37 270.641 146.444 276.139C151.665 273.952 156.626 269.988 160.365 263.776C161.631 261.67 162.743 259.341 163.981 257.195C170.286 246.29 178.599 237.258 187.626 233.243C189.083 231.942 190.544 230.641 192.002 229.345C196.244 225.563 200.529 221.756 205.179 219.544C207.563 218.41 210.026 217.706 212.508 217.448C209.599 219.706 206.658 221.994 204.173 225.31C202.866 227.057 201.701 229.067 200.359 230.742C200.315 230.798 200.268 230.849 200.221 230.904C201.55 230.955 202.879 231.087 204.202 231.299C210.887 223.665 216.495 211.818 224.749 211.428C231.324 211.119 237.844 208.137 243.54 202.837C245.937 200.609 248.211 197.961 250.81 196.432C253.103 195.081 255.607 194.661 258.023 195.207C262.192 196.154 265.915 199.875 269.971 201.682C271.517 202.371 273.163 202.781 274.715 202.133C275.23 201.92 275.733 201.566 276.186 201.1C273.835 200.305 271.586 198.964 269.547 196.858Z" fill="#E2E2E0"/>
<path d="M210.228 122.218C209.744 121.059 209.131 120.001 208.346 119.404C208.179 119.277 208.009 119.176 207.834 119.09C206.888 120.371 206.068 121.996 205.402 123.641C203.668 127.929 202.442 132.693 201.23 137.427C199.64 143.634 198.041 149.881 197.18 156.452C196.573 161.075 196.303 165.975 194.761 169.995C194.129 171.64 193.306 173.068 192.615 174.648C191.248 177.761 190.416 181.381 189.596 184.955C189.093 187.147 188.584 189.385 188.549 191.719C188.512 194.053 189.03 196.544 190.218 197.885C191.028 198.802 192.052 199.085 193.042 199.171C194.663 199.308 196.284 198.923 197.824 198.108C197.155 198.128 196.514 198.073 195.92 197.931C194.641 197.627 193.297 196.934 192.521 195.263C191.968 194.073 191.782 192.554 191.653 191.086C191.327 187.446 191.267 183.548 192.332 180.293C193.262 177.458 194.94 175.448 196.005 172.744C197.745 168.319 197.645 162.669 198.317 157.536C198.594 155.42 199.005 153.389 199.731 151.572C202.163 145.487 207.375 143.669 210.033 137.827C212.065 133.356 212.147 126.82 210.228 122.218Z" fill="#E6E6E4"/>
<path d="M60.6108 275.011C62.3104 274.535 63.8907 273.299 65.5307 272.434C68.1007 271.072 70.7806 270.636 73.4825 270.768C74.5696 270.15 75.6566 269.497 76.7594 268.986C77.6234 268.586 78.4968 268.282 79.3765 268.049C74.4376 267.462 69.3574 268.713 64.5694 270.925C62.7974 271.745 61.0317 272.692 59.197 272.97C56.6741 273.355 54.1482 272.449 51.6128 272.378C48.2699 272.287 44.9145 273.684 42.021 276.383C40.2899 277.992 38.1786 280.099 36.4852 278.392C35.5364 277.436 35.1531 275.486 35.3165 273.679C34.374 274.99 33.6419 276.6 33.4628 278.549C33.2429 280.939 33.9781 283.45 35.2097 284.827C36.4412 286.204 38.1064 286.447 39.5076 285.597C41.8482 284.179 43.2023 280.245 45.2664 277.972C45.8885 277.289 46.5294 276.838 47.186 276.555C47.384 276.337 47.5882 276.129 47.8018 275.942C51.6096 272.621 56.3474 276.205 60.6108 275.011Z" fill="#D3D3D3"/>
<path d="M73.8093 264.065C75.8986 264.217 77.9721 264.926 80.0614 264.748C81.7297 264.602 83.4733 263.751 84.6703 261.954C83.6493 262.364 82.6314 262.804 81.5914 263.022C77.1239 263.964 72.5589 260.744 68.1447 262.207C67.9751 262.263 67.8085 262.323 67.6452 262.394C66.1528 263.007 64.7485 264.085 63.3253 265.078C66.7529 265.042 70.3565 263.812 73.8093 264.065Z" fill="#EDEDED"/>
<path d="M234.639 256.182C232.744 256.218 230.973 254.826 229.197 253.757C223.696 250.431 217.636 250.046 211.814 251.332C208.214 252.127 205.32 253.114 202.081 255.706C198.421 258.643 194.745 261.534 191.019 264.252C183.472 269.761 175.696 274.59 167.603 277.547C164.282 278.762 160.908 279.658 157.66 281.319C154.772 282.792 152.017 284.852 149.243 286.812C148.995 286.989 148.743 287.156 148.495 287.333C159.187 284.711 169.768 280.898 180.136 275.932C186.001 273.122 191.801 269.948 197.516 266.409C202.8 263.138 207.899 258.749 213.388 256.795C217.397 255.367 221.78 254.532 225.452 257.494C231.082 262.035 238.576 277.557 244.755 265.29C248.793 257.276 244.853 245.854 239.788 241.921C239.773 241.911 239.757 241.901 239.741 241.885C240.156 242.989 240.432 244.214 240.517 245.515C240.875 250.836 237.963 256.117 234.639 256.182Z" fill="#E6E6E4"/>
<path d="M98.3244 281.557C95.8518 281.931 93.4138 283.02 90.9318 282.913C87.2811 282.762 83.888 280.068 80.4918 277.901C77.6768 276.104 74.5884 274.636 71.6383 275.248C73.4762 276.241 75.2576 277.81 76.9416 279.354C80.9913 283.075 84.6986 286.989 89.5714 286.29C92.8891 285.814 96.0498 283.85 99.3235 282.893C101.259 282.331 103.204 282.124 105.151 282.184C102.902 281.476 100.618 281.207 98.3244 281.557Z" fill="#D3D3D3"/>
<path d="M217.519 192.706C216.062 193.324 214.334 192.777 213.404 190.863C212.464 188.93 212.549 186.135 213.096 183.842C213.643 181.548 214.582 179.564 215.286 177.387C215.421 176.971 215.546 176.541 215.663 176.111C215.6 175.569 215.462 175.083 215.188 174.754C214.902 174.415 214.529 174.339 214.174 174.354C212.505 174.43 210.963 176.582 210.677 179.234C210.539 180.515 210.664 181.827 210.658 183.128C210.611 192.534 203.256 197.936 197.824 198.098C196.284 198.913 194.663 199.298 193.042 199.161C192.052 199.08 191.031 198.797 190.218 197.875C189.03 196.534 188.512 194.048 188.549 191.709C188.587 189.375 189.093 187.132 189.596 184.945C190.416 181.371 191.248 177.746 192.615 174.638C193.306 173.058 194.129 171.63 194.761 169.985C196.303 165.965 196.573 161.07 197.18 156.442C198.041 149.871 199.64 143.624 201.229 137.417C202.442 132.683 203.664 127.919 205.402 123.631C206.068 121.986 206.888 120.36 207.833 119.08C206.762 118.563 205.571 118.811 204.459 119.186C204.101 119.307 203.74 119.439 203.385 119.596C202.276 120.082 201.204 120.786 200.34 121.991C199.432 123.261 198.854 124.932 198.449 126.76C198.059 128.506 197.83 130.39 197.623 132.207C196.916 138.444 196.724 144.788 196.014 150.914C195.995 151.071 195.98 151.228 195.961 151.38C195.295 157.232 194.751 163.697 192.313 168.405C190.588 171.737 187.937 174.081 187.136 178.222C186.837 179.761 186.834 181.396 186.711 182.996C186.158 190.195 181.176 201.657 175.894 199.632C173.761 198.812 171.826 196.979 169.708 196.058C167.591 195.136 165.033 195.364 163.594 198.027C162.159 200.68 162.35 204.69 162.853 208.112C163.356 211.54 164.088 215.119 163.462 218.496C163.016 220.9 161.92 222.9 161.537 225.33C161.16 227.73 161.515 230.302 161.16 232.712C160.308 238.468 156.082 240.701 153.355 244.66C149.746 249.905 148.671 258.628 145.014 263.787C143.267 266.252 141.055 267.705 138.812 268.652C134.788 270.348 130.515 270.525 126.446 269.118C123.603 268.135 120.879 266.404 118.036 265.412C115.51 264.531 112.978 264.283 110.442 264.369C107.461 264.465 104.476 265.022 101.494 265.564C96.763 266.419 92.5593 260.739 87.7838 261.078C87.6896 261.083 87.5922 261.098 87.4979 261.108C86.5397 261.225 85.6003 261.569 84.6641 261.944C83.467 263.741 81.7234 264.591 80.0551 264.738C77.969 264.921 75.8923 264.212 73.803 264.055C70.3502 263.802 66.7498 265.027 63.319 265.067C62.2633 265.801 61.1951 266.485 60.0767 266.885C56.8092 268.059 53.4224 266.758 50.0796 266.556C45.6403 266.287 41.1602 268.014 37.2769 271.492C36.592 272.105 35.9071 272.823 35.3071 273.664C35.1437 275.471 35.527 277.42 36.4758 278.377C38.1692 280.083 40.2836 277.977 42.0116 276.367C44.9083 273.674 48.2605 272.272 51.6034 272.363C54.1356 272.434 56.6647 273.335 59.1876 272.955C61.0223 272.677 62.788 271.725 64.56 270.91C69.348 268.697 74.4282 267.447 79.3671 268.034C84.5258 266.667 89.9139 267.983 95.0507 269.902C97.9034 270.965 100.744 272.211 103.596 273.279C110.128 273.026 116.631 274.924 122.997 277.162C123.829 277.456 124.674 277.704 125.532 277.911C129.94 277.238 134.288 275.664 138.58 273.755C144.58 271.082 150.129 267.528 154.49 260.05C157.471 254.932 159.749 248.847 161.731 242.594C162.347 240.65 162.938 238.681 163.352 236.605C163.934 233.679 164.154 230.59 164.757 227.679C166.422 219.675 170.82 213.894 175.486 210.051C182.586 204.209 190.78 201.885 198.691 203.429C200.852 202.994 203.045 202.761 205.204 202.361C209.511 201.561 214.007 199.855 217.13 195.015C217.755 194.043 218.305 192.985 218.792 191.866C218.393 192.225 217.969 192.514 217.519 192.706Z" fill="#F7F7F9"/>
<path d="M164.562 202.857C165.363 204.649 165.486 207.525 166.79 208.188C167.946 208.775 169.001 207.079 170.013 206.001C170.965 204.983 172.112 204.442 173.255 204.477C173.846 204.492 174.465 204.649 175.002 204.264C175.542 203.88 175.891 202.639 175.477 201.961C175.096 201.384 174.493 201.617 173.972 201.657C173.152 201.713 163.362 194.848 163.934 201.166C163.993 201.824 164.32 202.315 164.562 202.857Z" fill="#E6E6E4"/>
<path d="M165.084 202.968C165.724 204.401 165.822 206.705 166.868 207.236C167.795 207.707 168.64 206.35 169.447 205.485C170.211 204.669 171.128 204.239 172.043 204.264C172.514 204.28 173.01 204.401 173.441 204.092C173.871 203.783 174.151 202.791 173.821 202.249C173.516 201.789 173.035 201.976 172.617 202.006C171.961 202.052 164.125 196.559 164.581 201.617C164.628 202.138 164.892 202.533 165.084 202.968Z" fill="#D3D3D3"/>
<path d="M259.006 74.1988C257.379 72.1737 255.035 72.8471 253.103 73.9912C248.142 76.9225 243.759 82.3346 240.715 89.2958C238.997 93.2193 237.705 97.5935 236.009 101.542C234.466 105.132 232.575 108.114 230.746 111.303C229.392 113.668 228.123 116.401 225.82 115.566C225.39 115.409 224.962 115.121 224.654 114.619C224.02 113.587 224.01 111.946 224.108 110.498C224.683 101.816 227.875 93.275 230.95 86.2885C232.924 81.808 234.856 77.282 236.747 72.7154C237.482 70.9384 238.217 69.1412 238.742 67.1769C240.008 62.4179 239.945 57.0616 240.203 51.8976C240.545 45.0023 241.651 37.7474 244.784 33.0138C246.926 29.7787 249.82 28.0321 251.884 24.6654C253.295 22.367 254.243 19.3547 254.592 16.1702C251.293 17.527 247.608 17.9118 244.828 21.0253C243.414 22.61 242.314 24.8325 241.475 27.2575C240.313 30.6141 239.637 34.3352 238.971 38.0208C238.016 43.3063 237.394 49.3005 236.021 54.3379C234.89 58.4842 232.669 61.6737 231.761 66.0529C231.051 69.4804 231.192 73.2116 230.778 76.7605C230.046 83.0281 227.482 88.673 223.995 91.6904C221.968 93.4421 219.7 94.318 217.541 95.5988C206.941 101.877 199.351 117.586 188.832 124.208C186.869 125.443 184.83 126.345 182.794 127.241C174.056 131.093 166.086 132.815 157.009 131.352C149.497 130.142 142.017 127.919 134.47 128.132C126.924 128.344 119.104 131.26 113.342 139.118C110.062 143.588 107.611 149.415 104.564 154.291C98.9936 163.211 91.3937 168.76 83.5613 169.631C79.5807 170.071 75.5781 169.352 71.6006 169.833C68.2798 170.238 64.7956 171.752 61.946 174.486C59.4766 181.194 58.3299 189.471 57.3622 197.273C56.6207 203.247 55.895 209.611 57.2617 215.296C57.8146 217.6 58.6912 219.675 59.6682 221.579C61.0286 224.227 62.6058 226.586 64.3369 228.591C65.0564 228.029 65.603 226.788 65.4334 225.543C65.2511 224.222 64.4154 223.472 63.8342 222.495C63.231 221.478 61.9523 218.02 62.8854 216.82C63.319 216.263 63.9379 216.238 64.4783 216.44C66.9383 217.362 67.7363 221.397 68.3521 224.778C69.6716 232.033 74.0575 236.514 78.1355 240.26C80.1399 242.103 82.1601 243.926 84.1959 245.687C80.9662 236.883 75.82 231.927 74.8272 221.538C73.9978 220.263 73.2155 218.916 72.5117 217.453C70.4256 213.104 69.0558 207.586 69.5239 202.138C70.1648 194.681 74.0763 188.95 78.302 185.735C86.1093 179.802 95.3429 180.308 103.15 174.374C110.122 169.079 115.321 159.131 121.994 152.924C132.956 142.727 146.51 143.71 159.029 146.722C163.274 147.745 167.559 148.965 171.835 148.347C177.261 147.562 182.407 143.806 186.84 138.698C190.588 134.374 194.154 128.886 198.465 126.765C198.87 124.937 199.451 123.266 200.356 121.996C201.217 120.791 202.288 120.087 203.4 119.601C204.874 118.113 206.401 116.776 208.057 115.946C210.576 114.68 213.479 114.705 215.691 117.024C217.686 119.115 218.858 122.72 220.646 125.246C222.71 128.157 225.522 129.463 228.264 129.418C229.304 129.402 230.332 129.205 231.349 128.866C231.808 126.795 232.292 124.79 232.716 122.968C234.237 116.462 236.263 110.311 238.296 104.195C238.554 103.416 238.839 102.651 239.144 101.912C239.229 100.54 239.336 99.1731 239.634 97.8821C241.365 90.4349 247.564 84.4356 252.226 83.5142C254.284 83.1041 256.433 83.2813 258.35 82.0055C259.126 81.4891 259.83 80.7196 260.433 79.783C260.489 77.6414 260.046 75.4949 259.006 74.1988Z" fill="#E6E6E4"/>
<path d="M61.7041 185.133C60.9532 187.411 60.6956 190.013 60.4506 192.56C59.9604 197.622 59.53 203.196 61.2171 207.54C61.3177 207.798 61.4371 208.067 61.613 208.183C62.1722 208.542 62.543 207.231 62.5775 206.264C62.7597 201.217 62.3922 196.017 63.3535 191.203C63.9253 188.337 64.9747 185.73 66.3445 183.685C67.4378 182.054 70.501 180.47 70.1083 177.574C69.1878 170.795 62.4236 182.945 61.7041 185.133Z" fill="#F7F7F9"/>
<path d="M184.154 159.298C170.032 166.978 154.185 154.367 139.796 160.614C131.677 164.138 124.954 173.296 117.1 178.131C111.821 181.381 106.163 182.596 100.602 184.196C89.405 187.411 74.2743 196.265 74.6482 218.582C74.667 219.62 74.7236 220.597 74.8147 221.538C75.8106 231.927 80.9537 236.883 84.1834 245.687C89.2793 250.102 94.5009 254.122 99.9958 257.008C103.04 258.607 106.204 259.883 108.903 262.653C109.424 263.189 109.933 263.781 110.445 264.374C112.981 264.293 115.513 264.536 118.039 265.417C120.879 266.409 123.606 268.14 126.449 269.123C130.518 270.525 134.788 270.353 138.815 268.657C141.062 267.71 143.274 266.257 145.017 263.792C148.674 258.633 149.749 249.91 153.359 244.665C156.086 240.706 160.314 238.468 161.163 232.717C161.518 230.307 161.163 227.735 161.54 225.335C161.923 222.905 163.019 220.906 163.466 218.501C164.091 215.129 163.362 211.545 162.856 208.117C162.353 204.69 162.159 200.685 163.598 198.032C165.04 195.369 167.594 195.141 169.711 196.063C171.829 196.984 173.764 198.817 175.898 199.637C181.179 201.662 186.162 190.195 186.715 183.001C186.837 181.401 186.84 179.766 187.139 178.227C187.94 174.086 190.592 171.742 192.316 168.41C194.751 163.702 195.295 157.242 195.964 151.385C191.889 153.319 188.198 157.1 184.154 159.298Z" fill="#E6E6E4"/>
<path d="M144.448 202.214C142.598 203.703 141.247 206.371 139.752 208.679C131.118 221.994 115.774 222.45 104.595 221.3C98.5223 220.678 92.3048 218.926 86.4454 221.554C84.0137 222.642 81.2615 226.135 82.2355 229.892C82.845 232.246 84.6012 233.107 86.1438 233.684C90.5265 235.334 94.9093 236.985 99.2952 238.635C101.677 239.531 104.115 240.468 106.157 242.635C107.753 244.331 109.025 246.695 110.508 248.639C115.708 255.464 123.358 256.446 129.519 252.188C133.584 249.378 136.987 244.619 140.32 239.931C143.148 235.952 146.035 231.861 147.864 226.581C149.566 221.67 150.248 216.015 150.657 210.431C150.826 208.092 150.921 205.515 150.079 203.586C148.885 200.862 146.299 200.726 144.448 202.214Z" fill="#EDEDED"/>
<path d="M240.523 245.51C240.439 244.214 240.162 242.984 239.747 241.88C234.843 238.114 229.131 240.62 223.888 238.979C221.931 238.367 220.052 237.233 218.157 236.215C213.636 233.795 208.942 232.059 204.205 231.304C202.879 231.092 201.553 230.96 200.224 230.909C197.874 230.818 195.524 230.985 193.187 231.451C191.311 231.826 189.457 232.438 187.629 233.248C178.603 237.258 170.289 246.295 163.984 257.2C162.743 259.341 161.634 261.675 160.368 263.781C156.629 269.993 151.668 273.957 146.447 276.145C145.444 276.565 144.433 276.929 143.418 277.218C137.691 278.868 131.373 279.339 125.541 277.917C124.684 277.709 123.839 277.461 123.006 277.167C116.641 274.929 110.137 273.031 103.606 273.284C102.594 273.325 101.579 273.411 100.564 273.563C96.5116 274.165 92.4587 275.699 88.4153 274.95C86.6371 274.621 84.9028 273.851 83.1623 273.163C80.0048 271.907 76.728 270.915 73.4825 270.753C70.7838 270.616 68.1038 271.057 65.5307 272.418C63.8908 273.284 62.3136 274.519 60.6108 274.995C56.3474 276.195 51.6096 272.611 47.8018 275.927C47.5882 276.114 47.384 276.322 47.186 276.539C51.2263 274.788 55.807 279.587 60.0264 278.17C62.2602 277.42 64.2206 275.162 66.4607 274.449C68.2107 273.892 69.9481 274.317 71.6415 275.228C74.5916 274.616 77.6799 276.084 80.4949 277.881C83.8912 280.053 87.2843 282.741 90.935 282.893C93.417 282.999 95.855 281.916 98.3275 281.536C100.621 281.187 102.908 281.455 105.158 282.159C110.772 282.326 116.411 284.68 121.897 286.994C124.813 288.224 127.747 289.449 130.75 289.829C133.679 290.199 136.619 289.753 139.535 289.227C141.115 288.938 142.695 288.624 144.273 288.285C145.686 287.981 147.097 287.652 148.505 287.308C148.753 287.136 149.004 286.964 149.252 286.786C152.026 284.827 154.782 282.767 157.669 281.293C160.914 279.633 164.289 278.737 167.613 277.522C175.706 274.565 183.482 269.735 191.028 264.227C194.754 261.508 198.43 258.618 202.09 255.681C205.326 253.089 208.22 252.102 211.823 251.307C217.645 250.021 223.706 250.406 229.207 253.732C230.979 254.805 232.754 256.198 234.648 256.157C237.963 256.117 240.875 250.836 240.523 245.51Z" fill="#EDEDED"/>
<path d="M193.3 240.787C188.637 241.733 184.374 245.692 180.623 250.046C175.674 255.793 171.028 262.622 165.272 265.862C164.38 266.363 163.327 267.011 163.12 268.495C167.98 266.748 172.765 264.47 177.434 261.68C187.45 255.696 197.164 247.272 207.811 245.925C210.708 245.561 213.621 245.728 216.514 246.133C216.822 244.771 215.502 244.153 214.604 244.148C211.776 244.138 209.112 242.225 206.417 240.842C202.279 238.726 197.554 239.926 193.3 240.787Z" fill="#F7F7F9"/>
<path d="M49.3473 249.798C46.2621 247.135 43.1329 245.141 39.9378 242.933C37.0254 240.918 34.6628 242.159 31.6561 243.348C28.8065 244.477 25.8627 245.956 22.9 245.115C20.8736 244.538 19.0325 242.913 17.1977 241.42C14.0057 238.832 10.6158 236.549 7.04673 236.311C5.47271 236.205 3.83271 236.534 2.49747 237.881C0.995706 239.399 0.0217624 242.189 -0.000229925 245.044C-0.0222222 247.9 0.910879 250.73 2.39065 252.304C3.33631 253.312 4.45792 253.808 5.57639 254.132C7.94841 254.826 10.3958 254.836 12.7679 254.157C15.4038 253.403 17.9486 251.808 20.616 251.444C26.334 250.664 32.0237 255.59 37.6694 253.94C39.3 253.464 40.8866 252.446 42.5423 252.441C44.2483 252.441 45.8757 253.514 47.4591 254.532C48.122 254.957 48.8132 255.382 49.5264 255.301C50.2396 255.22 50.9716 254.461 51.0879 253.327C51.2481 251.732 50.227 250.553 49.3473 249.793V249.798Z" fill="#E6E6E4"/>
<path d="M264.9 85.9392C267.059 87.6605 270.358 86.1316 271.991 83.7319C273.829 81.0284 274.665 74.5633 271.448 73.4647C269.135 72.6749 266.066 74.6544 264.376 77.1402C262.811 79.4387 262.591 83.4433 264.451 85.5139C264.592 85.6709 264.743 85.8126 264.9 85.9392Z" fill="#F7F7F9"/>
<path d="M51.085 253.327C51.2483 251.737 50.2273 250.558 49.3476 249.793C46.2624 247.13 43.1332 245.136 39.938 242.928C37.0256 240.913 34.663 242.154 31.6563 243.343C28.8068 244.472 25.8629 245.951 22.9003 245.11C20.8738 244.533 19.0328 242.908 17.198 241.414C14.0059 238.827 10.616 236.544 7.04696 236.306C5.47294 236.2 3.83294 236.529 2.4977 237.876C0.995937 239.389 0.0219923 242.184 0 245.039C0 245.637 0.0408428 246.234 0.116245 246.816C2.25578 248.507 4.67179 249.302 7.0501 249.029C9.15508 248.786 11.1972 247.748 13.2959 247.368C18.7877 246.371 24.2669 249.895 29.7838 249.398C32.225 249.176 34.6253 248.168 37.0696 248.148C39.3756 248.128 41.6817 249.009 43.7395 250.689C45.3387 251.996 46.787 253.767 48.383 255.064C48.7569 255.236 49.1371 255.347 49.5235 255.301C50.2335 255.21 50.9687 254.456 51.085 253.322V253.327Z" fill="#F7F7F9"/>
<path d="M31.9328 214.815C30.2237 216.142 30.8992 220.45 31.8008 222.308C32.7999 224.368 34.509 225.74 36.0768 226.282C37.9021 226.91 40.9088 225.756 41.3046 222.323C42.1906 214.608 35.2128 212.264 31.9328 214.815Z" fill="#F7F7F9"/>
<path d="M24.3957 290.502C24.0973 291.398 23.9402 292.477 23.9873 293.743C24.2607 301.245 31.2228 302.081 33.0293 295.844C33.953 292.654 33.3906 289.161 31.317 287.763C29.011 286.209 25.5771 286.964 24.3957 290.502Z" fill="#F7F7F9"/>
<path d="M23.626 260.769C22.3222 264.171 24.135 267.619 26.2996 268.161C28.8099 268.788 31.5464 265.062 29.9284 260.931C28.7251 257.858 24.8262 257.64 23.626 260.769Z" fill="#F7F7F9"/>
<path d="M76.1405 137.29C78.5188 137.381 82.468 133.088 82.8701 129.089C83.0209 127.585 82.6942 125.975 82.0218 124.907C81.2207 123.626 80.0331 123.185 78.9052 123.15C75.9111 123.054 71.4373 125.691 71.9745 131.676C72.2541 134.809 74.1706 137.209 76.1405 137.29Z" fill="#F7F7F9"/>
<path d="M152.614 61.3396C151.558 60.0435 150.148 59.6132 148.838 59.9575C148.043 60.165 147.26 60.6662 146.682 61.5674C145.165 63.9317 145.564 67.8856 145.664 71.2827C145.828 76.7352 144.929 82.1067 144.002 87.3568C143.848 88.2225 143.764 89.3869 144.254 89.8223C144.436 89.9843 144.656 89.9894 144.863 89.9742C146.751 89.8274 148.536 88.3389 149.912 86.248C151.288 84.1571 152.284 81.4992 153.076 78.7299C154.383 74.1431 155.624 65.0353 152.614 61.3396Z" fill="#F7F7F9"/>
<path d="M147.505 102.079C147.901 103.405 148.847 104.043 149.746 104.312C151.631 104.869 153.644 104.221 155.253 102.535C155.69 102.079 156.104 101.532 156.381 100.824C157.327 98.3833 157.204 94.6622 155.398 93.5079C153.412 92.2372 151.137 92.2726 149.428 94.4395C148.099 96.1203 146.66 99.249 147.505 102.079Z" fill="#F7F7F9"/>
<path d="M136.446 95.366C136.613 98.1049 137.813 98.5858 139.419 98.6922C140.581 98.7681 142.315 98.4593 142.78 96.3886C143.132 94.8243 142.482 93.0219 141.558 92.2676C140.226 91.1791 136.296 91.8828 136.434 95.1736C136.44 95.2394 136.443 95.3001 136.446 95.366Z" fill="#F7F7F9"/>
<path d="M257.319 9.04196C257.341 10.0494 257.539 11.0164 257.979 11.8467C260.119 15.9019 265.925 14.9248 268.275 11.9429C269.277 10.6721 269.984 8.68251 269.918 6.62705C269.827 3.74638 268.253 1.43273 266.54 0.597387C264.413 -0.435403 261.859 -0.162017 259.936 1.7213C258.601 3.03254 257.256 6.19673 257.319 9.04196Z" fill="#F7F7F9"/>
<path d="M244.843 49.7966C244.978 54.8087 249.333 54.8644 251.231 52.7229C252.321 51.4926 252.98 49.26 252.773 47.1387C252.082 39.9649 244.693 44.1416 244.843 49.7966Z" fill="#F7F7F9"/>
<path d="M284.838 184.662C283.531 184.94 282.183 184.864 280.917 185.467C280.361 185.73 279.773 186.221 279.604 187.112C279.368 188.327 280.022 189.492 280.65 190.261C283.298 193.481 286.663 195.131 289.975 194.843C292.79 194.595 295.985 193.243 298.118 190.119C300.443 186.702 300.996 179.65 297.553 177.402C295.375 175.979 292.476 178.04 290.804 180.353C289.126 182.677 287.034 184.196 284.838 184.662Z" fill="#F7F7F9"/>
<path d="M241.695 226.424C241.673 227.047 241.717 227.684 241.805 228.292C242.132 230.499 243.081 232.393 244.268 233.603C245.456 234.813 246.87 235.38 248.277 235.476C249.597 235.567 251.017 235.198 251.988 233.755C253.097 232.109 253.37 229.299 252.833 227.031C251.758 222.51 248.104 220.647 245.34 221.103C243.885 221.341 242.405 222.652 241.89 224.859C241.777 225.361 241.714 225.887 241.695 226.424Z" fill="#F7F7F9"/>
<path d="M267.759 167.778C266.968 169.367 266.776 171.519 267.832 173.696C269.999 178.156 276.192 173.731 274.213 168.061C272.73 163.808 269.223 164.841 267.759 167.778Z" fill="#F7F7F9"/>
<path d="M13.5598 65.9213C13.3242 66.4579 13.2017 67.0958 13.098 67.7287C12.6613 70.3663 12.4916 73.4141 13.4907 75.6113C14.8542 78.6084 17.685 78.6286 19.4506 81.0233C20.7702 82.8104 21.3105 85.6759 21.5713 88.425C21.8132 90.9512 22.1337 93.8117 23.9182 94.4242C27.1605 95.538 26.9783 87.6706 26.7112 84.5115C26.1614 77.9907 24.2764 71.4548 21.2508 66.9845C19.6077 64.5594 15.137 62.347 13.5598 65.9213Z" fill="#F7F7F9"/>
<path d="M36.903 221.68C36.7742 221.366 36.6863 221.012 36.5417 220.718C36.1804 219.979 35.5615 219.746 34.9991 219.493C33.8932 218.997 32.8031 218.222 32.0019 216.896C31.7537 216.486 31.5432 216.015 31.3704 215.509C30.4153 217.27 31.0217 220.703 31.804 222.313C32.8031 224.373 34.5122 225.745 36.0799 226.287C37.368 226.733 39.2468 226.277 40.3778 224.768C40.0102 224.404 39.6175 224.105 39.2154 223.852C38.3671 223.32 37.4026 222.9 36.903 221.68Z" fill="#E2E2E0"/>
<path d="M29.6739 293.788C28.4831 293.92 27.261 294.441 26.3593 295.707C25.888 296.37 25.533 297.271 25.3602 298.233C27.5469 301.19 31.6909 300.45 33.0293 295.843C33.2617 295.049 33.3968 294.228 33.444 293.434C32.9539 293.57 32.4575 293.672 31.9611 293.712C31.1976 293.768 30.4342 293.707 29.6739 293.788Z" fill="#E2E2E0"/>
<path d="M28.3512 263.301C27.6757 263.999 26.774 263.63 26.0043 264.004C25.3319 264.333 24.7916 265.28 24.6439 266.384C24.6125 266.606 24.6125 266.829 24.6125 267.057C25.1057 267.609 25.6901 268.004 26.3028 268.156C28.813 268.783 31.5495 265.057 29.9315 260.926C29.9001 260.845 29.8624 260.779 29.8278 260.703C29.2497 261.306 28.9638 262.673 28.3512 263.301Z" fill="#E2E2E0"/>
<path d="M76.6777 130.096C76.3069 130.572 76.0368 131.215 75.688 131.731C74.9497 132.82 73.8564 133.25 72.8887 132.82C72.5902 132.688 72.3138 132.47 72.0562 132.197C72.4929 135.068 74.2837 137.214 76.1404 137.285C78.5187 137.376 82.4679 133.083 82.8701 129.083C82.936 128.415 82.9046 127.727 82.7947 127.068C81.8364 127.97 80.7305 128.547 79.6309 128.79C78.6067 129.018 77.4882 129.058 76.6777 130.096Z" fill="#E2E2E0"/>
<path d="M153.073 78.7249C154.383 74.1381 155.624 65.0353 152.614 61.3396C152.573 61.2889 152.526 61.2484 152.485 61.1978C152.341 61.5775 152.224 61.9825 152.152 62.3977C151.838 64.2506 152.052 66.2149 151.954 68.1286C151.813 70.9688 151.002 73.5913 150.204 76.1378C149.277 79.0995 148.351 82.0561 147.424 85.0178C146.912 86.653 146.346 88.344 145.658 89.8172C147.245 89.3768 148.728 88.0352 149.906 86.243C151.285 84.1521 152.281 81.4942 153.073 78.7249Z" fill="#E2E2E0"/>
<path d="M154.81 98.3327C153.522 99.7907 151.788 99.2895 150.214 99.33C149.208 99.3553 148.212 99.6591 147.26 100.165C147.248 100.803 147.32 101.446 147.505 102.074C147.901 103.4 148.847 104.038 149.745 104.307C151.631 104.864 153.644 104.216 155.253 102.53C155.69 102.074 156.104 101.527 156.381 100.818C157.047 99.1022 157.166 96.7632 156.56 95.1179C155.985 96.2215 155.536 97.5125 154.81 98.3327Z" fill="#E2E2E0"/>
<path d="M141.018 94.7229C139.513 94.9811 137.904 95.5279 136.751 97.0012C137.232 98.3124 138.209 98.6111 139.419 98.687C140.581 98.763 142.315 98.4542 142.78 96.3835C142.925 95.7355 142.893 95.052 142.749 94.4141C142.171 94.5407 141.59 94.6268 141.018 94.7229Z" fill="#E2E2E0"/>
<path d="M259.983 8.23696C259.358 8.29771 258.714 8.42428 258.167 8.92042C257.86 9.19381 257.599 9.61908 257.426 10.1051C257.527 10.7278 257.699 11.3201 257.982 11.8517C260.122 15.9069 265.928 14.9298 268.278 11.9479C269.041 10.9809 269.629 9.59376 269.839 8.08002C269.069 8.30278 268.296 8.45972 267.514 8.52553C265.004 8.72298 262.491 7.99395 259.983 8.23696Z" fill="#E2E2E0"/>
<path d="M251.23 52.7228C252.176 51.6546 252.792 49.8421 252.808 47.9943C252.387 48.5714 251.915 49.0473 251.4 49.3865C249.569 50.5914 247.288 50.2522 245.852 52.4444C245.792 52.5355 245.732 52.6317 245.673 52.7279C247.061 54.6871 249.82 54.3125 251.23 52.7228Z" fill="#E2E2E0"/>
<path d="M289.148 189.826C286.12 189.593 283.028 188.611 280.072 189.416C280.248 189.729 280.449 190.018 280.65 190.266C283.298 193.486 286.663 195.136 289.975 194.848C292.79 194.6 295.985 193.248 298.118 190.124C298.599 189.421 298.995 188.56 299.306 187.618C298.828 187.973 298.316 188.216 297.807 188.423C294.983 189.572 292.054 190.048 289.148 189.826Z" fill="#E2E2E0"/>
<path d="M246.779 229.715C245.77 229.249 244.777 228.626 243.734 228.51C243.128 228.444 242.487 228.591 241.937 228.986C242.342 230.894 243.21 232.524 244.272 233.603C245.459 234.813 246.873 235.38 248.28 235.476C249.6 235.567 251.02 235.197 251.991 233.755C252.563 232.909 252.908 231.75 253.04 230.52C250.941 230.894 248.805 230.646 246.779 229.715Z" fill="#E2E2E0"/>
<path d="M271.944 171.276C271.325 171.413 270.7 171.306 270.075 171.342C269.139 171.397 268.215 171.792 267.376 172.466C267.492 172.871 267.634 173.281 267.835 173.696C269.896 177.938 275.589 174.146 274.445 168.891C273.823 170.142 272.934 171.058 271.944 171.276Z" fill="#E2E2E0"/>
<path d="M26.8212 86.491C26.0043 87.4681 24.8921 87.8326 23.9873 87.1137C23.1076 86.415 22.5892 84.9064 22.2907 83.4027C21.9923 81.8991 21.8572 80.3094 21.4676 78.8564C20.3711 74.7557 17.5718 72.6951 15.0333 70.9029C14.3013 70.3866 13.5472 69.8297 12.9095 69.0652C12.6393 71.3535 12.6518 73.7786 13.4907 75.6163C14.8542 78.6134 17.6849 78.6337 19.4506 81.0283C20.7701 82.8155 21.3105 85.6809 21.5713 88.43C21.8132 90.9563 22.1337 93.8167 23.9182 94.4293C26.6044 95.3456 26.9374 90.1159 26.8212 86.491Z" fill="#E2E2E0"/>
<path d="M269.029 79.4083C266.958 79.869 265.095 82.1725 264.225 85.2253C264.297 85.3215 264.369 85.4177 264.451 85.5088C264.596 85.6708 264.746 85.8126 264.903 85.9341C267.062 87.6554 270.361 86.1265 271.994 83.7268C272.657 82.7497 273.185 81.2865 273.446 79.7576C271.976 79.5905 270.48 79.0893 269.029 79.4083Z" fill="#E2E2E0"/>
<path d="M225.518 163.15C226.495 159.11 227.202 154.827 227.099 150.494C227.058 148.798 226.879 147.056 226.32 145.613C225.694 144.003 224.658 142.94 223.611 142.064C221.645 140.419 219.411 139.249 217.174 139.462C215.085 139.659 212.955 141.31 210.981 142.373C207.811 144.084 204.663 145.947 201.619 148.18C200.9 149.172 200.249 150.266 199.731 151.562C199.005 153.379 198.597 155.409 198.317 157.526C197.645 162.659 197.745 168.309 196.005 172.734C194.94 175.443 193.262 177.452 192.332 180.282C191.267 183.533 191.327 187.436 191.653 191.076C191.785 192.544 191.971 194.063 192.521 195.253C193.297 196.924 194.638 197.617 195.92 197.921C196.514 198.063 197.155 198.118 197.824 198.098C203.256 197.936 210.611 192.529 210.658 183.128C210.664 181.827 210.538 180.515 210.677 179.234C210.963 176.582 212.505 174.43 214.174 174.354C214.529 174.339 214.902 174.415 215.188 174.754C215.462 175.083 215.6 175.569 215.663 176.111C215.729 176.678 215.713 177.306 215.682 177.878C215.565 179.984 215.449 182.09 215.333 184.196C215.292 184.915 215.333 185.497 215.43 185.963C215.449 186.049 215.474 186.12 215.499 186.196C219.907 179.933 223.385 171.975 225.518 163.15Z" fill="#D8D8D8"/>
<path d="M164.339 197C166.073 195.85 168.093 196.114 170.095 196.25C169.969 196.19 169.843 196.119 169.715 196.063C167.921 195.288 165.819 195.349 164.339 197Z" fill="#E2E2E0"/>
<path d="M160.506 209.266C160.49 213.524 160.905 217.903 160.107 221.964C159.802 223.508 159.328 224.961 158.712 226.242C157.999 227.72 157.078 229.016 156.705 230.788C156.384 232.312 156.513 233.993 156.293 235.562C155.567 240.731 151.69 242.554 149.142 245.9C146.883 248.867 145.595 253.287 143.858 257.058C141.165 262.911 137.38 267.153 133.195 270.014C135.092 269.877 136.981 269.437 138.819 268.662C141.065 267.715 143.277 266.262 145.02 263.797C148.677 258.638 149.752 249.915 153.362 244.67C156.089 240.711 160.318 238.473 161.166 232.722C161.521 230.312 161.166 227.74 161.543 225.34C161.926 222.91 163.023 220.911 163.469 218.506C164.094 215.134 163.365 211.55 162.859 208.122C162.357 204.695 162.162 200.69 163.601 198.037C163.821 197.632 164.075 197.298 164.342 197C163.997 197.227 163.66 197.516 163.337 197.87C161.156 200.28 160.522 205.009 160.506 209.266Z" fill="#E2E2E0"/>
<path d="M195.873 151.44C194.384 155.749 193.359 160.685 191.437 164.548C190.039 167.357 188.197 169.524 186.812 172.349C184.365 177.346 183.529 184.019 181.066 188.995C178.961 193.248 175.7 195.962 172.328 196.27C171.596 196.336 170.846 196.306 170.092 196.25C172.061 197.212 173.893 198.868 175.898 199.637C181.179 201.662 186.162 190.195 186.715 183.001C186.837 181.401 186.84 179.766 187.139 178.232C187.94 174.086 190.592 171.747 192.316 168.416C194.751 163.707 195.298 157.247 195.964 151.39C195.936 151.405 195.904 151.425 195.873 151.44Z" fill="#E2E2E0"/>
</svg>
