<svg width="300" height="300" viewBox="0 0 300 300" fill="none" xmlns="http://www.w3.org/2000/svg">
<g clip-path="url(#clip0_6_14)">
<path d="M299.142 150C299.142 232.369 232.369 299.142 150 299.142C67.6312 299.142 0.858154 232.369 0.858154 150C0.858154 67.6312 67.6312 0.858093 150 0.858093C232.369 0.858093 299.142 67.6312 299.142 150Z" fill="#CCCCCC" stroke="black" stroke-width="1.98856"/>
<path d="M158.781 47.3343C156.931 41.7836 144.465 28.8162 138.011 26.665C137.043 26.3422 135.713 26.2614 133.998 26.3639C121.995 27.0816 94.3805 37.1849 89.2478 42.3175C84.5211 50.7374 67.212 63.4676 63.4613 53.7559C70.3343 40.7288 74.856 33.6665 49.6148 39.7087C30.7269 56.9083 16.2776 78.8696 8.17566 103.724C10.9718 109.831 10.6565 114.833 11.4868 118.273C18.7104 135.302 11.6287 156.409 24.3299 168.441C37.4125 168.684 35.8939 173.585 66.2707 173.458C73.6443 188.205 50.9939 193.122 55.635 211.686C56.2311 214.071 69.5998 213.609 72.1906 213.091C91.4349 209.242 81.7404 220.769 93.4268 223.69C104.115 226.362 110.61 206.337 133.933 215.339C139.821 211.414 132.896 196.739 131.59 192.823C129.068 185.256 136.522 168.673 134.801 165.23C125.11 155.963 114.181 151.462 113.128 137.136C119.654 134.575 126.549 133.832 131.69 133.724C142.387 131.585 130.675 112.654 143.831 112.654C156.035 110.586 188.434 120.043 179.899 101.529C175.533 94.2524 172.072 90.7857 162.392 91.1112C153.467 90.6486 143.603 109.682 137.51 102.62C124.318 93.8835 109.277 109.411 93.8282 117.766C79.6511 113.391 75.485 112.075 73.1938 103.021C80.4042 96.1279 83.7459 95.1418 99.783 96.5997C106.68 95.3932 113.636 99.0054 120.553 97.5028C135.023 87.5922 150.691 84.6408 159.383 71.1142C162.622 63.3214 161.365 55.4858 158.781 47.3343ZM191.892 94.7937C194.448 94.7937 206.068 94.1474 207.043 96.0981C208.275 98.5627 183.516 121.318 202.428 133.925C205.276 135.824 210.847 137.628 213.063 139.845C209.79 168.25 213.873 160.881 222.294 176.669C224.298 180.676 222.363 184.247 225.003 188.207C235.8 204.402 242.163 181.193 240.255 171.652C237.066 155.71 218.559 177.886 218.559 153.714C218.559 132.203 249.887 146.697 249.887 126.099C239.495 125.323 247.907 108.26 244.87 104.426C240.873 85.5694 228.309 86.2074 213.56 92.4912C212.811 81.8469 213.596 63.4778 204.334 56.5653C184.818 60.3968 180.43 38.3876 167.209 63.0872C162.238 79.2864 179.364 94.4402 191.892 94.7937ZM63.6178 114.69C62.7343 119.042 57.7736 122.646 53.9191 121.083C48.1518 118.744 46.761 111.072 51.0034 107.86C55.9903 104.084 64.339 111.137 63.6178 114.69Z" fill="#999999"/>
<path d="M259.555 100.286C262.539 106.254 269.87 117.224 278.888 112.715C286.873 100.558 273.555 88.901 266.229 85.556C262.316 86.2838 257.924 96.435 259.555 100.286Z" fill="#999999"/>
<path d="M250.349 163.809C252.486 168.085 264.337 176.135 265.539 178.539C269.005 185.472 260.918 193.251 262.777 195.111C266.418 198.752 273.899 187.984 274.745 185.444C275.812 182.245 281.909 163.148 278.888 160.127C271.222 152.461 275.262 136.535 263.237 130.206C254.263 134.159 245.634 154.381 250.349 163.809Z" fill="#999999"/>
<path d="M136.044 268.262C135.048 260.288 131.285 259.961 122.666 256.427C133.415 253.665 135.969 247.093 131.584 239.095C137.089 244.801 142.057 243.16 148.411 233.189C144.559 246.758 154.74 250.048 167.342 250.448C153.61 254.987 150.361 261.238 154.349 268.93C148.073 264.748 142.33 261.36 136.044 268.262Z" fill="#ECECEC"/>
</g>
<defs>
<clipPath id="clip0_6_14">
<rect width="300" height="300" fill="white"/>
</clipPath>
</defs>
</svg>
