<!--NEED THIS Link to external css file -->
<?xml-stylesheet type="text/css" href="../styles.css"?>
<!-- SVG Tag -->
<svg id="svgSun" xmlns="http://www.w3.org/2000/svg" viewBox="0 0 300 300">

<svg width="300" height="300" viewBox="0 0 300 300" fill="none" xmlns="http://www.w3.org/2000/svg">
<g clip-path="url(#clip0_6_98)">

<path id="backsun" d="M291.761 168.285L291.703 168.335C283.81 175.237 281.275 186.607 
285.46 196.319L285.469 196.337C291.303 209.879 283.914 225.542 
269.913 229.312C259.854 232.021 252.725 241.145 
252.37 251.766V251.808C251.876 266.58 238.59 277.412 
224.382 274.625L224.319 274.611C214.116 272.609 203.837 277.674 
199.014 287.074L199.001 287.101C192.277 300.202 175.682 304.064 
164.068 295.233C155.722 288.883 144.283 288.883 
135.932 295.233C124.318 304.068 107.723 300.207
100.999 287.106L100.986 287.078C96.1631 277.679 85.8838 272.618 
75.6809 274.616L75.618 274.629C61.4104 277.417 48.1242 266.58 
47.6298 251.812V251.771C47.2747 241.15 40.1462 232.026 
30.0872 229.316C16.0819 225.546 8.69266 209.883 
14.5312 196.342L14.5402 196.323C18.7292 186.611 16.1897 175.242 
8.29713 168.34L8.2387 168.29C-2.74623 158.683 -2.74623 141.326 
8.2387 131.719L8.29713 131.669C16.1897 124.767 18.7247 113.398 
14.5402 103.686L14.5312 103.667C8.69715 90.1257 16.0864 74.4627 
30.0872 70.6927C40.1462 67.9835 47.2747 58.8593 
47.6298 48.2381V48.1968C48.1242 33.4246 61.4104 22.5922 
75.618 25.3795L75.6809 25.3933C85.8838 27.3954 96.1631 22.3305 
100.986 12.9308L100.999 12.9032C107.723 -0.197531 124.318 -4.05934 
135.932 4.77094C144.283 11.1216 155.717 11.1216 
164.068 4.77094C175.682 -4.06394 192.277 -0.202123 
199.001 12.8987L199.014 12.9262C203.837 22.3259 214.116 27.3862 
224.319 25.3887L224.382 25.3749C238.59 22.5876 251.876 33.4246 
252.37 48.1922V48.2336C252.725 58.8547 259.854 67.9789 
269.913 70.6881C283.918 74.4581 291.307 90.1211 
285.469 103.663L285.46 103.681C281.271 113.393 283.81 124.763 
291.703 131.664L291.761 131.715C302.746 141.321 302.746 158.679 
291.761 168.285Z" fill="#F5C525"/>

<path id="frontsun" d="M150 272.453C216.196 272.453 269.859 217.629 
269.859 150C269.859 82.3711 216.196 27.547 
150 27.547C83.8038 27.547 30.1411 82.3711 
30.1411 150C30.1411 217.629 83.8038 272.453 
150 272.453Z" fill="#F8A805"/>
</g>
<defs>

<clipPath id="clip0_6_98">
<rect width="300" height="300" fill="#fff"/>
</clipPath>
</defs>
</svg>
</svg>
